<?xml version="1.0" encoding="UTF-8"?>
<svg xmlns="http://www.w3.org/2000/svg" xmlns:xlink="http://www.w3.org/1999/xlink" width="3000.39" height="1500.53" viewBox="0 0 3000.39 1500.53">
<defs>
<clipPath id="clip-0">
<path clip-rule="nonzero" d="M 0.00390625 0 L 3000.390625 0 L 3000.390625 1500.53125 L 0.00390625 1500.53125 Z M 0.00390625 0 "/>
</clipPath>
<linearGradient id="linear-pattern-0" gradientUnits="userSpaceOnUse" x1="0.00337324" y1="0" x2="1.373212" y2="0" gradientTransform="matrix(-2114.99, -1225.42, -1225.42, 2114.99, 3007.33, 1504.99912)">
<stop offset="0" stop-color="rgb(49.719238%, 0%, 58.714294%)" stop-opacity="1"/>
<stop offset="0.0078125" stop-color="rgb(49.583435%, 0%, 58.54187%)" stop-opacity="1"/>
<stop offset="0.015625" stop-color="rgb(49.31488%, 0%, 58.197021%)" stop-opacity="1"/>
<stop offset="0.0234375" stop-color="rgb(49.046326%, 0%, 57.853699%)" stop-opacity="1"/>
<stop offset="0.03125" stop-color="rgb(48.777771%, 0%, 57.50885%)" stop-opacity="1"/>
<stop offset="0.0390625" stop-color="rgb(48.509216%, 0%, 57.165527%)" stop-opacity="1"/>
<stop offset="0.046875" stop-color="rgb(48.240662%, 0%, 56.820679%)" stop-opacity="1"/>
<stop offset="0.0546875" stop-color="rgb(47.972107%, 0%, 56.477356%)" stop-opacity="1"/>
<stop offset="0.0625" stop-color="rgb(47.703552%, 0%, 56.132507%)" stop-opacity="1"/>
<stop offset="0.0703125" stop-color="rgb(47.434998%, 0%, 55.789185%)" stop-opacity="1"/>
<stop offset="0.078125" stop-color="rgb(47.166443%, 0%, 55.444336%)" stop-opacity="1"/>
<stop offset="0.0859375" stop-color="rgb(46.897888%, 0%, 55.101013%)" stop-opacity="1"/>
<stop offset="0.09375" stop-color="rgb(46.629333%, 0%, 54.756165%)" stop-opacity="1"/>
<stop offset="0.101562" stop-color="rgb(46.360779%, 0%, 54.412842%)" stop-opacity="1"/>
<stop offset="0.109375" stop-color="rgb(46.092224%, 0%, 54.067993%)" stop-opacity="1"/>
<stop offset="0.117187" stop-color="rgb(45.823669%, 0%, 53.72467%)" stop-opacity="1"/>
<stop offset="0.125" stop-color="rgb(45.555115%, 0%, 53.379822%)" stop-opacity="1"/>
<stop offset="0.132812" stop-color="rgb(45.28656%, 0%, 53.034973%)" stop-opacity="1"/>
<stop offset="0.140625" stop-color="rgb(45.018005%, 0%, 52.69165%)" stop-opacity="1"/>
<stop offset="0.148438" stop-color="rgb(44.749451%, 0%, 52.346802%)" stop-opacity="1"/>
<stop offset="0.15625" stop-color="rgb(44.480896%, 0%, 52.003479%)" stop-opacity="1"/>
<stop offset="0.164062" stop-color="rgb(44.212341%, 0%, 51.65863%)" stop-opacity="1"/>
<stop offset="0.171875" stop-color="rgb(43.943787%, 0%, 51.315308%)" stop-opacity="1"/>
<stop offset="0.179688" stop-color="rgb(43.675232%, 0%, 50.970459%)" stop-opacity="1"/>
<stop offset="0.1875" stop-color="rgb(43.406677%, 0%, 50.627136%)" stop-opacity="1"/>
<stop offset="0.195312" stop-color="rgb(43.138123%, 0%, 50.282288%)" stop-opacity="1"/>
<stop offset="0.203125" stop-color="rgb(42.869568%, 0%, 49.938965%)" stop-opacity="1"/>
<stop offset="0.210938" stop-color="rgb(42.601013%, 0%, 49.594116%)" stop-opacity="1"/>
<stop offset="0.21875" stop-color="rgb(42.332458%, 0%, 49.250793%)" stop-opacity="1"/>
<stop offset="0.226562" stop-color="rgb(42.063904%, 0%, 48.905945%)" stop-opacity="1"/>
<stop offset="0.234375" stop-color="rgb(41.795349%, 0%, 48.561096%)" stop-opacity="1"/>
<stop offset="0.242188" stop-color="rgb(41.526794%, 0%, 48.217773%)" stop-opacity="1"/>
<stop offset="0.25" stop-color="rgb(41.25824%, 0%, 47.872925%)" stop-opacity="1"/>
<stop offset="0.257812" stop-color="rgb(40.989685%, 0%, 47.529602%)" stop-opacity="1"/>
<stop offset="0.265625" stop-color="rgb(40.72113%, 0%, 47.184753%)" stop-opacity="1"/>
<stop offset="0.273437" stop-color="rgb(40.452576%, 0%, 46.841431%)" stop-opacity="1"/>
<stop offset="0.28125" stop-color="rgb(40.184021%, 0%, 46.496582%)" stop-opacity="1"/>
<stop offset="0.289062" stop-color="rgb(39.915466%, 0%, 46.153259%)" stop-opacity="1"/>
<stop offset="0.296875" stop-color="rgb(39.645386%, 0%, 45.808411%)" stop-opacity="1"/>
<stop offset="0.304688" stop-color="rgb(39.376831%, 0%, 45.465088%)" stop-opacity="1"/>
<stop offset="0.3125" stop-color="rgb(39.108276%, 0%, 45.120239%)" stop-opacity="1"/>
<stop offset="0.320312" stop-color="rgb(38.839722%, 0%, 44.776917%)" stop-opacity="1"/>
<stop offset="0.328125" stop-color="rgb(38.571167%, 0%, 44.432068%)" stop-opacity="1"/>
<stop offset="0.335938" stop-color="rgb(38.302612%, 0%, 44.088745%)" stop-opacity="1"/>
<stop offset="0.34375" stop-color="rgb(38.034058%, 0%, 43.743896%)" stop-opacity="1"/>
<stop offset="0.351562" stop-color="rgb(37.765503%, 0%, 43.399048%)" stop-opacity="1"/>
<stop offset="0.359375" stop-color="rgb(37.496948%, 0%, 43.055725%)" stop-opacity="1"/>
<stop offset="0.367187" stop-color="rgb(37.228394%, 0%, 42.710876%)" stop-opacity="1"/>
<stop offset="0.375" stop-color="rgb(36.959839%, 0%, 42.367554%)" stop-opacity="1"/>
<stop offset="0.382812" stop-color="rgb(36.691284%, 0%, 42.022705%)" stop-opacity="1"/>
<stop offset="0.390625" stop-color="rgb(36.422729%, 0%, 41.679382%)" stop-opacity="1"/>
<stop offset="0.398438" stop-color="rgb(36.154175%, 0%, 41.334534%)" stop-opacity="1"/>
<stop offset="0.40625" stop-color="rgb(35.88562%, 0%, 40.991211%)" stop-opacity="1"/>
<stop offset="0.414062" stop-color="rgb(35.617065%, 0%, 40.646362%)" stop-opacity="1"/>
<stop offset="0.421875" stop-color="rgb(35.348511%, 0%, 40.30304%)" stop-opacity="1"/>
<stop offset="0.429688" stop-color="rgb(35.079956%, 0%, 39.958191%)" stop-opacity="1"/>
<stop offset="0.4375" stop-color="rgb(34.811401%, 0%, 39.614868%)" stop-opacity="1"/>
<stop offset="0.445312" stop-color="rgb(34.542847%, 0%, 39.27002%)" stop-opacity="1"/>
<stop offset="0.453125" stop-color="rgb(34.274292%, 0%, 38.926697%)" stop-opacity="1"/>
<stop offset="0.460937" stop-color="rgb(34.005737%, 0%, 38.581848%)" stop-opacity="1"/>
<stop offset="0.46875" stop-color="rgb(33.737183%, 0%, 38.237%)" stop-opacity="1"/>
<stop offset="0.476562" stop-color="rgb(33.468628%, 0%, 37.893677%)" stop-opacity="1"/>
<stop offset="0.484375" stop-color="rgb(33.200073%, 0%, 37.548828%)" stop-opacity="1"/>
<stop offset="0.492188" stop-color="rgb(32.931519%, 0%, 37.205505%)" stop-opacity="1"/>
<stop offset="0.5" stop-color="rgb(32.662964%, 0%, 36.860657%)" stop-opacity="1"/>
<stop offset="0.507812" stop-color="rgb(32.394409%, 0%, 36.517334%)" stop-opacity="1"/>
<stop offset="0.515625" stop-color="rgb(32.125854%, 0%, 36.172485%)" stop-opacity="1"/>
<stop offset="0.523438" stop-color="rgb(31.8573%, 0%, 35.829163%)" stop-opacity="1"/>
<stop offset="0.53125" stop-color="rgb(31.588745%, 0%, 35.484314%)" stop-opacity="1"/>
<stop offset="0.539063" stop-color="rgb(31.32019%, 0%, 35.140991%)" stop-opacity="1"/>
<stop offset="0.546875" stop-color="rgb(31.051636%, 0%, 34.796143%)" stop-opacity="1"/>
<stop offset="0.554688" stop-color="rgb(30.783081%, 0%, 34.45282%)" stop-opacity="1"/>
<stop offset="0.5625" stop-color="rgb(30.514526%, 0%, 34.107971%)" stop-opacity="1"/>
<stop offset="0.570312" stop-color="rgb(30.245972%, 0%, 33.764648%)" stop-opacity="1"/>
<stop offset="0.578125" stop-color="rgb(29.977417%, 0%, 33.4198%)" stop-opacity="1"/>
<stop offset="0.585938" stop-color="rgb(29.707336%, 0%, 33.074951%)" stop-opacity="1"/>
<stop offset="0.59375" stop-color="rgb(29.438782%, 0%, 32.731628%)" stop-opacity="1"/>
<stop offset="0.601562" stop-color="rgb(29.170227%, 0%, 32.38678%)" stop-opacity="1"/>
<stop offset="0.609375" stop-color="rgb(28.901672%, 0%, 32.043457%)" stop-opacity="1"/>
<stop offset="0.617188" stop-color="rgb(28.633118%, 0%, 31.698608%)" stop-opacity="1"/>
<stop offset="0.625" stop-color="rgb(28.364563%, 0%, 31.355286%)" stop-opacity="1"/>
<stop offset="0.632812" stop-color="rgb(28.096008%, 0%, 31.010437%)" stop-opacity="1"/>
<stop offset="0.640625" stop-color="rgb(27.827454%, 0%, 30.667114%)" stop-opacity="1"/>
<stop offset="0.648438" stop-color="rgb(27.558899%, 0%, 30.322266%)" stop-opacity="1"/>
<stop offset="0.65625" stop-color="rgb(27.290344%, 0%, 29.978943%)" stop-opacity="1"/>
<stop offset="0.664063" stop-color="rgb(27.02179%, 0%, 29.634094%)" stop-opacity="1"/>
<stop offset="0.671875" stop-color="rgb(26.753235%, 0%, 29.290771%)" stop-opacity="1"/>
<stop offset="0.679688" stop-color="rgb(26.48468%, 0%, 28.945923%)" stop-opacity="1"/>
<stop offset="0.6875" stop-color="rgb(26.216125%, 0%, 28.6026%)" stop-opacity="1"/>
<stop offset="0.695312" stop-color="rgb(25.947571%, 0%, 28.257751%)" stop-opacity="1"/>
<stop offset="0.703125" stop-color="rgb(25.679016%, 0%, 27.912903%)" stop-opacity="1"/>
<stop offset="0.710938" stop-color="rgb(25.410461%, 0%, 27.56958%)" stop-opacity="1"/>
<stop offset="0.71875" stop-color="rgb(25.141907%, 0%, 27.224731%)" stop-opacity="1"/>
<stop offset="0.75" stop-color="rgb(24.856567%, 0%, 26.860046%)" stop-opacity="1"/>
<stop offset="1" stop-color="rgb(24.705505%, 0%, 26.66626%)" stop-opacity="1"/>
</linearGradient>
<clipPath id="clip-1">
<path clip-rule="nonzero" d="M 151.902344 -1.078125 L 126.503906 42.910156 C 108.945312 73.320312 119.355469 112.160156 149.765625 129.710938 C 180.179688 147.269531 219.011719 136.871094 236.570312 106.449219 L 298.648438 -1.078125 L 287.015625 -1.078125 L 227.839844 101.421875 C 212.984375 127.148438 180.527344 135.839844 154.800781 120.980469 C 129.070312 106.128906 120.378906 73.671875 135.234375 47.941406 L 163.535156 -1.078125 Z M 362.242188 -1.078125 L 91.335938 468.160156 C 73.773438 498.570312 84.183594 537.402344 114.597656 554.964844 C 145.007812 572.519531 183.839844 562.113281 201.398438 531.699219 L 496.117188 21.238281 C 500.21875 14.128906 502.734375 6.570312 503.886719 -1.078125 L 493.699219 -1.078125 C 492.617188 4.828125 490.578125 10.671875 487.386719 16.199219 L 192.667969 526.667969 C 177.8125 552.394531 145.359375 561.085938 119.628906 546.230469 C 93.902344 531.378906 85.210938 498.921875 100.0625 473.191406 L 373.882812 -1.078125 Z M 588.691406 -1.078125 L 417.464844 295.5 C 399.90625 325.921875 410.3125 364.75 440.726562 382.308594 C 471.140625 399.859375 509.972656 389.460938 527.53125 359.039062 L 735.445312 -1.078125 L 723.8125 -1.078125 L 518.800781 354.011719 C 503.945312 379.738281 471.488281 388.429688 445.761719 373.578125 C 420.03125 358.71875 411.339844 326.261719 426.195312 300.539062 L 600.324219 -1.078125 Z M 800.605469 -1.078125 L 765.976562 58.898438 C 748.417969 89.308594 758.824219 128.140625 789.238281 145.699219 C 819.652344 163.261719 858.480469 152.851562 876.039062 122.441406 L 947.351562 -1.078125 L 935.71875 -1.078125 L 867.3125 117.410156 C 852.457031 143.128906 820 151.828125 794.269531 136.96875 C 768.542969 122.121094 759.851562 89.660156 774.707031 63.929688 L 812.238281 -1.078125 Z M 1000.300781 -1.078125 L 757.519531 419.441406 C 739.960938 449.851562 750.371094 488.679688 780.78125 506.242188 C 811.195312 523.800781 850.027344 513.390625 867.585938 482.980469 L 1147.050781 -1.078125 L 1135.421875 -1.078125 L 858.855469 477.949219 C 844 503.675781 811.546875 512.363281 785.816406 497.511719 C 760.085938 482.660156 751.394531 450.199219 766.25 424.46875 L 1011.929688 -1.078125 Z M 1202.261719 -1.078125 L 1086.851562 198.820312 C 1069.289062 229.230469 1079.699219 268.058594 1110.109375 285.621094 C 1140.519531 303.179688 1179.351562 292.769531 1196.910156 262.359375 L 1349.011719 -1.078125 L 1337.371094 -1.078125 L 1188.179688 257.328125 C 1173.328125 283.058594 1140.871094 291.75 1115.140625 276.890625 C 1089.410156 262.039062 1080.71875 229.578125 1095.578125 203.851562 L 1213.890625 -1.078125 Z M 1620.910156 -1.078125 L 1435.359375 320.320312 C 1417.800781 350.730469 1428.210938 389.558594 1458.621094 407.121094 C 1489.03125 424.679688 1527.871094 414.269531 1545.429688 383.859375 L 1767.671875 -1.078125 L 1756.03125 -1.078125 L 1536.691406 378.828125 C 1521.839844 404.558594 1489.378906 413.25 1463.648438 398.390625 C 1437.929688 383.539062 1429.238281 351.078125 1444.089844 325.351562 L 1632.550781 -1.078125 Z M 1842.621094 -1.078125 L 1684.75 272.359375 C 1667.191406 302.769531 1677.601562 341.601562 1708.019531 359.160156 C 1738.429688 376.71875 1777.261719 366.308594 1794.820312 335.898438 L 1989.378906 -1.078125 L 1977.738281 -1.078125 L 1786.089844 330.871094 C 1771.230469 356.601562 1738.78125 365.289062 1713.050781 350.429688 C 1687.320312 335.578125 1678.628906 303.121094 1693.480469 277.390625 L 1854.261719 -1.078125 Z M 2056.378906 -1.078125 C 2042.421875 28.519531 2053.25 64.328125 2082.109375 80.988281 C 2112.519531 98.550781 2151.351562 88.140625 2168.910156 57.730469 L 2202.859375 -1.078125 L 2191.230469 -1.078125 L 2160.179688 52.699219 C 2145.320312 78.429688 2112.871094 87.121094 2087.140625 72.261719 C 2061.410156 57.410156 2052.71875 24.949219 2067.570312 -0.78125 L 2067.75 -1.078125 Z M 2253.988281 -1.078125 L 2068.441406 320.320312 C 2050.878906 350.730469 2061.289062 389.558594 2091.699219 407.121094 C 2122.109375 424.679688 2160.941406 414.269531 2178.5 383.859375 L 2400.75 -1.078125 L 2389.109375 -1.078125 L 2169.769531 378.828125 C 2154.921875 404.558594 2122.460938 413.25 2096.730469 398.390625 C 2071 383.539062 2062.308594 351.078125 2077.171875 325.351562 L 2265.628906 -1.078125 Z M 2467.480469 -1.078125 L 2442.53125 42.148438 C 2424.96875 72.558594 2435.378906 111.390625 2465.789062 128.949219 C 2496.199219 146.511719 2535.03125 136.101562 2552.589844 105.691406 L 2614.230469 -1.078125 L 2602.601562 -1.078125 L 2543.859375 100.660156 C 2529.011719 126.390625 2496.550781 135.078125 2470.820312 120.21875 C 2445.089844 105.371094 2436.398438 72.910156 2451.261719 47.179688 L 2479.121094 -1.078125 Z M 2648.328125 -1.078125 L 2359.390625 499.371094 C 2341.839844 529.785156 2352.238281 568.613281 2382.660156 586.175781 C 2413.070312 603.734375 2451.898438 593.324219 2469.460938 562.910156 L 2764.179688 52.449219 C 2773.960938 35.511719 2775.039062 15.960938 2768.839844 -1.078125 L 2758.03125 -1.078125 C 2764.75 13.988281 2764.398438 31.910156 2755.449219 47.410156 L 2460.730469 557.878906 C 2445.878906 583.609375 2413.421875 592.300781 2387.691406 577.445312 C 2361.960938 562.589844 2353.269531 530.132812 2368.128906 504.40625 L 2659.960938 -1.078125 Z M 2850.429688 -1.078125 L 2671.050781 309.621094 C 2653.488281 340.03125 2663.910156 378.871094 2694.320312 396.421875 C 2724.730469 413.980469 2763.558594 403.570312 2781.121094 373.160156 L 2997.191406 -1.078125 L 2985.550781 -1.078125 L 2772.390625 368.121094 C 2757.539062 393.851562 2725.078125 402.550781 2699.351562 387.691406 C 2673.621094 372.839844 2664.929688 340.378906 2679.78125 314.648438 L 2862.070312 -1.078125 Z M 1412.699219 56.21875 C 1390.160156 55.609375 1368.050781 67.109375 1355.980469 88.019531 L 1061.269531 598.488281 C 1043.710938 628.902344 1054.121094 667.734375 1084.53125 685.292969 C 1114.941406 702.851562 1153.78125 692.445312 1171.328125 662.03125 L 1466.050781 151.570312 C 1483.609375 121.148438 1473.199219 82.320312 1442.789062 64.761719 C 1433.289062 59.269531 1422.941406 56.5 1412.699219 56.21875 Z M 1412.421875 66.300781 C 1421.03125 66.53125 1429.71875 68.851562 1437.761719 73.488281 C 1463.488281 88.351562 1472.179688 120.800781 1457.320312 146.53125 L 1162.601562 656.996094 C 1147.75 682.726562 1115.289062 691.417969 1089.558594 676.5625 C 1063.839844 661.707031 1055.140625 629.25 1070 603.523438 L 1364.710938 93.058594 C 1374.921875 75.371094 1393.480469 65.789062 1412.421875 66.300781 Z M 2007.398438 116.96875 C 1984.871094 116.359375 1962.761719 127.859375 1950.691406 148.769531 L 1655.980469 659.238281 C 1638.421875 689.652344 1648.828125 728.484375 1679.238281 746.042969 C 1709.648438 763.601562 1748.480469 753.191406 1766.039062 722.78125 L 2060.761719 212.308594 C 2078.320312 181.898438 2067.910156 143.070312 2037.5 125.511719 C 2027.988281 120.019531 2017.648438 117.25 2007.398438 116.96875 Z M 2007.128906 127.050781 C 2015.738281 127.28125 2024.429688 129.601562 2032.460938 134.238281 C 2058.191406 149.101562 2066.878906 181.550781 2052.03125 207.28125 L 1757.308594 717.746094 C 1742.460938 743.476562 1710 752.167969 1684.269531 737.3125 C 1658.539062 722.457031 1649.851562 690 1664.710938 664.273438 L 1959.421875 153.808594 C 1969.628906 136.121094 1988.179688 126.539062 2007.128906 127.050781 Z M 65.472656 156.101562 C 42.9375 155.488281 20.832031 166.988281 8.757812 187.898438 L 0.00390625 203.070312 L 0.00390625 223.21875 L 17.488281 192.941406 C 27.699219 175.25 46.253906 165.671875 65.199219 166.179688 C 73.808594 166.410156 82.492188 168.730469 90.535156 173.371094 C 116.261719 188.230469 124.953125 220.679688 110.097656 246.410156 L 0.00390625 437.101562 L 0.00390625 457.261719 L 118.828125 251.441406 C 136.390625 221.03125 125.980469 182.199219 95.566406 164.640625 C 86.0625 159.148438 75.71875 156.378906 65.472656 156.101562 Z M 2391.089844 164.929688 C 2368.550781 164.320312 2346.441406 175.820312 2334.371094 196.730469 L 2039.660156 707.199219 C 2022.101562 737.613281 2032.511719 776.441406 2062.921875 794.003906 C 2093.328125 811.5625 2132.160156 801.152344 2149.71875 770.738281 L 2444.441406 260.28125 C 2462 229.859375 2451.589844 191.03125 2421.179688 173.46875 C 2411.679688 167.980469 2401.328125 165.210938 2391.089844 164.929688 Z M 2390.808594 175.011719 C 2399.421875 175.238281 2408.109375 177.558594 2416.148438 182.199219 C 2441.878906 197.058594 2450.570312 229.511719 2435.710938 255.238281 L 2140.988281 765.707031 C 2126.140625 791.4375 2093.679688 800.128906 2067.949219 785.273438 C 2042.230469 770.417969 2033.53125 737.960938 2048.390625 712.234375 L 2343.101562 201.769531 C 2353.308594 184.078125 2371.871094 174.5 2390.808594 175.011719 Z M 725.808594 179.589844 C 703.273438 178.980469 681.171875 190.488281 669.097656 211.398438 L 374.378906 721.863281 C 356.820312 752.273438 367.230469 791.105469 397.640625 808.664062 C 428.054688 826.222656 466.890625 815.816406 484.453125 785.402344 L 779.164062 274.941406 C 796.722656 244.53125 786.316406 205.691406 755.902344 188.140625 C 746.398438 182.648438 736.050781 179.871094 725.808594 179.589844 Z M 725.535156 189.671875 C 734.144531 189.898438 742.828125 192.21875 750.867188 196.871094 C 776.597656 211.71875 785.289062 244.179688 770.433594 269.898438 L 475.722656 780.371094 C 460.867188 806.097656 428.402344 814.789062 402.675781 799.933594 C 376.945312 785.078125 368.257812 752.625 383.109375 726.894531 L 677.828125 216.429688 C 688.042969 198.738281 706.589844 189.160156 725.535156 189.671875 Z M 2980.921875 192.589844 C 2958.378906 191.980469 2936.269531 203.488281 2924.199219 224.398438 L 2629.480469 734.863281 C 2611.921875 765.277344 2622.339844 804.113281 2652.75 821.671875 C 2683.160156 839.230469 2722 828.816406 2739.550781 798.40625 L 3007.328125 334.609375 L 3007.328125 314.460938 L 2730.820312 793.371094 C 2715.96875 819.101562 2683.511719 827.796875 2657.78125 812.941406 C 2632.058594 798.089844 2623.359375 765.625 2638.210938 739.898438 L 2932.929688 229.429688 C 2943.140625 211.738281 2961.699219 202.160156 2980.640625 202.671875 C 2989.25 202.898438 2997.929688 205.230469 3005.96875 209.871094 C 3006.441406 210.140625 3006.859375 210.460938 3007.320312 210.738281 L 3007.320312 199.171875 C 2998.859375 194.980469 2989.851562 192.839844 2980.910156 192.589844 Z M 1045 321.601562 C 1022.46875 320.988281 1000.359375 332.488281 988.285156 353.398438 L 693.570312 863.867188 C 676.011719 894.28125 686.421875 933.113281 716.835938 950.671875 C 747.246094 968.230469 786.078125 957.824219 803.636719 927.410156 L 1098.359375 416.949219 C 1115.921875 386.53125 1105.511719 347.699219 1075.089844 330.140625 C 1065.589844 324.648438 1055.238281 321.878906 1045 321.601562 Z M 1044.730469 331.679688 C 1053.339844 331.910156 1062.019531 334.230469 1070.058594 338.871094 C 1095.789062 353.730469 1104.480469 386.179688 1089.628906 411.910156 L 794.90625 922.378906 C 780.050781 948.105469 747.597656 956.796875 721.867188 941.941406 C 696.140625 927.089844 687.449219 894.632812 702.300781 868.902344 L 997.015625 358.441406 C 1007.230469 340.75 1025.78125 331.171875 1044.730469 331.679688 Z M 1642.910156 391.941406 C 1620.371094 391.328125 1598.261719 402.839844 1586.191406 423.75 L 1291.480469 934.210938 C 1273.921875 964.625 1284.328125 1003.457031 1314.738281 1021.015625 C 1345.148438 1038.574219 1383.980469 1028.164062 1401.539062 997.753906 L 1696.261719 487.289062 C 1713.820312 456.871094 1703.410156 418.039062 1673 400.480469 C 1663.5 395 1653.148438 392.21875 1642.910156 391.941406 Z M 1642.628906 402.019531 C 1651.238281 402.25 1659.929688 404.570312 1667.96875 409.210938 C 1693.691406 424.070312 1702.390625 456.519531 1687.53125 482.25 L 1392.808594 992.71875 C 1377.960938 1018.449219 1345.5 1027.140625 1319.769531 1012.285156 C 1294.039062 997.429688 1285.351562 964.972656 1300.210938 939.246094 L 1594.921875 428.78125 C 1605.128906 411.089844 1623.679688 401.511719 1642.628906 402.019531 Z M 359.628906 427.871094 C 337.09375 427.269531 314.984375 438.769531 302.914062 459.679688 L 8.203125 970.144531 C 3.457031 978.363281 0.820312 987.195312 0.00390625 996.058594 L 0.00390625 1007.808594 C 1.859375 1027.605469 12.914062 1046.238281 31.464844 1056.945312 C 61.875 1074.507812 100.707031 1064.097656 118.265625 1033.683594 L 412.984375 523.21875 C 430.546875 492.808594 420.136719 453.980469 389.722656 436.421875 C 380.21875 430.929688 369.871094 428.148438 359.628906 427.871094 Z M 359.355469 437.949219 C 367.964844 438.191406 376.648438 440.511719 384.691406 445.148438 C 410.417969 460 419.109375 492.460938 404.253906 518.1875 L 109.535156 1028.652344 C 94.679688 1054.382812 62.226562 1063.070312 36.496094 1048.21875 C 10.765625 1033.363281 2.078125 1000.90625 16.929688 975.179688 L 311.644531 464.710938 C 321.855469 447.019531 340.410156 437.441406 359.355469 437.949219 Z M 2026.589844 439.898438 C 2004.050781 439.289062 1981.941406 450.800781 1969.871094 471.710938 L 1675.160156 982.171875 C 1657.601562 1012.585938 1668.011719 1051.414062 1698.421875 1068.976562 C 1728.828125 1086.535156 1767.671875 1076.125 1785.230469 1045.714844 L 2079.941406 535.246094 C 2097.5 504.835938 2087.101562 466 2056.679688 448.441406 C 2047.179688 442.960938 2036.828125 440.179688 2026.589844 439.898438 Z M 1383.921875 443.101562 C 1361.378906 442.488281 1339.28125 454 1327.199219 474.898438 L 1032.488281 985.367188 C 1014.929688 1015.78125 1025.339844 1054.613281 1055.75 1072.171875 C 1086.171875 1089.730469 1125 1079.324219 1142.558594 1048.910156 L 1437.28125 538.445312 C 1454.828125 508.03125 1444.429688 469.199219 1414.011719 451.640625 C 1404.511719 446.148438 1394.160156 443.378906 1383.921875 443.101562 Z M 2634.089844 443.101562 C 2611.550781 442.488281 2589.441406 454 2577.371094 474.898438 L 2282.660156 985.367188 C 2265.101562 1015.78125 2275.511719 1054.613281 2305.921875 1072.171875 C 2336.328125 1089.730469 2375.160156 1079.324219 2392.71875 1048.910156 L 2687.441406 538.445312 C 2705 508.03125 2694.589844 469.199219 2664.179688 451.640625 C 2654.679688 446.148438 2644.328125 443.378906 2634.089844 443.101562 Z M 2026.308594 449.980469 C 2034.921875 450.210938 2043.609375 452.53125 2051.648438 457.171875 C 2077.378906 472.03125 2086.070312 504.484375 2071.210938 530.214844 L 1776.488281 1040.679688 C 1761.640625 1066.410156 1729.179688 1075.101562 1703.460938 1060.242188 C 1677.730469 1045.390625 1669.039062 1012.933594 1683.890625 987.203125 L 1978.601562 476.738281 C 1988.808594 459.050781 2007.371094 449.46875 2026.308594 449.980469 Z M 1383.640625 453.179688 C 1392.261719 453.410156 1400.941406 455.730469 1408.980469 460.371094 C 1434.710938 475.230469 1443.398438 507.683594 1428.539062 533.410156 L 1133.828125 1043.878906 C 1118.96875 1069.605469 1086.519531 1078.296875 1060.789062 1063.441406 C 1035.058594 1048.589844 1026.371094 1016.132812 1041.21875 990.402344 L 1335.929688 479.941406 C 1346.148438 462.25 1364.699219 452.671875 1383.640625 453.179688 Z M 2633.808594 453.179688 C 2642.421875 453.410156 2651.109375 455.730469 2659.148438 460.371094 C 2684.871094 475.230469 2693.558594 507.683594 2678.710938 533.410156 L 2383.988281 1043.878906 C 2369.140625 1069.605469 2336.679688 1078.296875 2310.949219 1063.441406 C 2285.21875 1048.589844 2276.53125 1016.132812 2291.390625 990.402344 L 2586.101562 479.941406 C 2596.308594 462.25 2614.859375 452.671875 2633.808594 453.179688 Z M 3007.328125 458.820312 L 2923.640625 603.773438 C 2906.078125 634.1875 2916.488281 673.023438 2946.910156 690.582031 C 2966.191406 701.714844 2988.839844 701.566406 3007.328125 692.242188 L 3007.328125 680.746094 C 2991.089844 691.089844 2969.890625 692.214844 2951.941406 681.851562 C 2926.210938 666.996094 2917.519531 634.535156 2932.371094 608.804688 L 3007.328125 478.980469 Z M 715.671875 551.808594 C 693.136719 551.199219 671.027344 562.703125 658.957031 583.613281 L 364.242188 1094.078125 C 346.683594 1124.492188 357.09375 1163.324219 387.507812 1180.882812 C 417.921875 1198.441406 456.75 1188.035156 474.308594 1157.621094 L 769.027344 647.15625 C 786.585938 616.742188 776.179688 577.910156 745.765625 560.351562 C 736.261719 554.863281 725.914062 552.085938 715.671875 551.808594 Z M 715.398438 561.886719 C 724.007812 562.121094 732.691406 564.441406 740.730469 569.082031 C 766.460938 583.9375 775.152344 616.390625 760.296875 642.121094 L 465.578125 1152.585938 C 450.722656 1178.316406 418.269531 1187.007812 392.539062 1172.152344 C 366.8125 1157.296875 358.117188 1124.839844 372.972656 1099.113281 L 667.6875 588.648438 C 677.898438 570.960938 696.453125 561.375 715.398438 561.886719 Z M 52.683594 600.53125 C 32.453125 599.984375 12.59375 609.226562 0 626.242188 L 0 645.507812 L 4.699219 637.367188 C 14.910156 619.679688 33.464844 610.097656 52.40625 610.609375 C 61.019531 610.84375 69.703125 613.160156 77.742188 617.804688 C 103.472656 632.660156 112.164062 665.113281 97.308594 690.84375 L 0 859.386719 L 0 879.539062 L 106.039062 695.878906 C 123.597656 665.464844 113.191406 626.632812 82.777344 609.074219 C 73.273438 603.585938 62.925781 600.808594 52.683594 600.53125 Z M 2323.941406 638.136719 C 2301.410156 637.527344 2279.300781 649.035156 2267.230469 669.941406 L 1972.511719 1180.40625 C 1954.949219 1210.820312 1965.359375 1249.652344 1995.78125 1267.210938 C 2026.191406 1284.769531 2065.019531 1274.363281 2082.578125 1243.949219 L 2377.300781 733.484375 C 2394.859375 703.070312 2384.449219 664.238281 2354.039062 646.679688 C 2344.53125 641.191406 2334.179688 638.414062 2323.941406 638.136719 Z M 2323.671875 648.21875 C 2332.28125 648.449219 2340.960938 650.769531 2349 655.410156 C 2374.730469 670.265625 2383.421875 702.722656 2368.570312 728.449219 L 2073.851562 1238.914062 C 2058.988281 1264.644531 2026.539062 1273.335938 2000.808594 1258.480469 C 1975.078125 1243.625 1966.390625 1211.171875 1981.238281 1185.441406 L 2275.960938 674.976562 C 2286.171875 657.285156 2304.71875 647.703125 2323.671875 648.21875 Z M 1019.421875 718.070312 C 996.886719 717.460938 974.777344 728.96875 962.703125 749.875 L 667.992188 1260.34375 C 650.433594 1290.753906 660.839844 1329.585938 691.253906 1347.144531 C 721.667969 1364.703125 760.496094 1354.296875 778.058594 1323.882812 L 1072.78125 813.417969 C 1090.339844 783.003906 1079.929688 744.171875 1049.511719 726.613281 C 1040.011719 721.128906 1029.660156 718.347656 1019.421875 718.070312 Z M 1019.148438 728.152344 C 1027.761719 728.382812 1036.441406 730.703125 1044.480469 735.34375 C 1070.210938 750.199219 1078.898438 782.65625 1064.050781 808.382812 L 769.328125 1318.851562 C 754.472656 1344.578125 722.015625 1353.269531 696.285156 1338.414062 C 670.558594 1323.558594 661.867188 1291.105469 676.722656 1265.375 L 971.433594 754.910156 C 981.648438 737.222656 1000.199219 727.640625 1019.148438 728.152344 Z M 2889.710938 735.03125 C 2867.171875 734.421875 2845.070312 745.933594 2832.988281 766.84375 L 2538.28125 1277.304688 C 2520.71875 1307.714844 2531.128906 1346.554688 2561.539062 1364.113281 C 2591.960938 1381.671875 2630.789062 1371.261719 2648.351562 1340.851562 L 2943.070312 830.386719 C 2960.628906 799.972656 2950.210938 761.132812 2919.800781 743.574219 C 2910.289062 738.089844 2899.949219 735.308594 2889.710938 735.03125 Z M 2889.441406 745.113281 C 2898.050781 745.34375 2906.71875 747.664062 2914.761719 752.304688 C 2940.488281 767.160156 2949.191406 799.621094 2934.339844 825.351562 L 2639.621094 1335.816406 C 2624.761719 1361.546875 2592.308594 1370.234375 2566.578125 1355.382812 C 2540.851562 1340.527344 2532.148438 1308.0625 2547.011719 1282.335938 L 2841.71875 771.878906 C 2851.941406 754.1875 2870.488281 744.601562 2889.441406 745.113281 Z M 1617.328125 801.203125 C 1594.789062 800.59375 1572.679688 812.097656 1560.609375 833.007812 L 1265.898438 1343.472656 C 1248.339844 1373.886719 1258.75 1412.71875 1289.160156 1430.277344 C 1319.570312 1447.835938 1358.398438 1437.425781 1375.960938 1407.015625 L 1670.679688 896.550781 C 1688.238281 866.136719 1677.828125 827.304688 1647.421875 809.746094 C 1637.910156 804.257812 1627.570312 801.480469 1617.328125 801.203125 Z M 1617.050781 811.28125 C 1625.660156 811.515625 1634.351562 813.835938 1642.390625 818.476562 C 1668.109375 833.328125 1676.808594 865.785156 1661.949219 891.515625 L 1367.230469 1401.980469 C 1352.378906 1427.710938 1319.921875 1436.398438 1294.191406 1421.546875 C 1268.460938 1406.691406 1259.769531 1374.234375 1274.628906 1348.507812 L 1569.339844 838.039062 C 1579.550781 820.351562 1598.101562 810.769531 1617.050781 811.28125 Z M 3007.328125 832.183594 L 2830.910156 1137.730469 C 2813.359375 1168.144531 2823.769531 1206.980469 2854.179688 1224.539062 C 2884.601562 1242.097656 2923.429688 1231.683594 2940.988281 1201.273438 L 3007.328125 1086.371094 L 3007.328125 1066.214844 L 2932.261719 1196.238281 C 2917.398438 1221.96875 2884.941406 1230.664062 2859.21875 1215.808594 C 2833.488281 1200.953125 2824.789062 1168.492188 2839.640625 1142.765625 L 3007.328125 852.335938 Z M 351.714844 838.242188 C 329.179688 837.632812 307.078125 849.144531 295.007812 870.050781 L 0.289062 1380.511719 C 0.183594 1380.6875 0.0976562 1380.867188 0 1381.042969 L 0 1443.445312 C 5.398438 1453.050781 13.308594 1461.40625 23.550781 1467.320312 C 53.960938 1484.878906 92.800781 1474.472656 110.359375 1444.058594 L 405.070312 933.59375 C 422.628906 903.179688 412.222656 864.34375 381.808594 846.785156 C 372.304688 841.296875 361.957031 838.515625 351.714844 838.242188 Z M 351.441406 848.320312 C 360.050781 848.554688 368.738281 850.871094 376.777344 855.515625 C 402.503906 870.367188 411.195312 902.832031 396.339844 928.558594 L 101.628906 1439.023438 C 86.773438 1464.753906 54.3125 1473.445312 28.582031 1458.589844 C 2.855469 1443.734375 -5.835938 1411.273438 9.019531 1385.542969 L 303.738281 875.085938 C 313.949219 857.394531 332.496094 847.808594 351.441406 848.320312 Z M 2001.011719 849.164062 C 1978.46875 848.554688 1956.359375 860.058594 1944.289062 880.96875 L 1649.578125 1391.433594 C 1632.019531 1421.847656 1642.429688 1460.675781 1672.839844 1478.234375 C 1703.25 1495.796875 1742.089844 1485.386719 1759.640625 1454.972656 L 2054.359375 944.507812 C 2071.921875 914.097656 2061.511719 875.265625 2031.101562 857.707031 C 2021.601562 852.21875 2011.25 849.441406 2001.011719 849.164062 Z M 2000.730469 859.242188 C 2009.339844 859.476562 2018.03125 861.792969 2026.070312 866.4375 C 2051.800781 881.289062 2060.488281 913.746094 2045.628906 939.476562 L 1750.910156 1449.941406 C 1736.058594 1475.671875 1703.601562 1484.359375 1677.871094 1469.503906 C 1652.148438 1454.652344 1643.449219 1422.195312 1658.308594 1396.464844 L 1953.019531 886 C 1963.230469 868.3125 1981.789062 858.730469 2000.730469 859.242188 Z M 2584.441406 886.417969 C 2561.910156 885.8125 2539.800781 897.316406 2527.730469 918.226562 L 2233.011719 1428.691406 C 2218.390625 1454.019531 2223.21875 1485.144531 2242.789062 1505 L 2258.578125 1505 C 2235.019531 1489.472656 2227.429688 1458.5 2241.738281 1433.722656 L 2536.460938 923.257812 C 2546.671875 905.570312 2565.21875 895.988281 2584.171875 896.5 C 2592.78125 896.730469 2601.460938 899.050781 2609.5 903.691406 C 2635.230469 918.546875 2643.921875 951.003906 2629.058594 976.730469 L 2334.339844 1487.199219 C 2330.058594 1494.617188 2324.289062 1500.570312 2317.660156 1505 L 2333.28125 1505 C 2336.980469 1501.238281 2340.308594 1497.011719 2343.070312 1492.230469 L 2637.789062 981.765625 C 2655.351562 951.351562 2644.941406 912.519531 2614.53125 894.964844 C 2605.03125 889.476562 2594.679688 886.695312 2584.441406 886.417969 Z M 658.117188 999.4375 C 635.582031 998.828125 613.480469 1010.335938 601.410156 1031.242188 L 327.886719 1505 L 339.527344 1505 L 610.140625 1036.277344 C 620.351562 1018.589844 638.902344 1009.007812 657.851562 1009.519531 C 666.460938 1009.75 675.144531 1012.070312 683.183594 1016.710938 C 708.914062 1031.566406 717.605469 1064.023438 702.75 1089.75 L 463.003906 1505 L 474.632812 1505 L 711.472656 1094.785156 C 729.03125 1064.371094 718.625 1025.539062 688.210938 1007.980469 C 678.707031 1002.492188 668.359375 999.714844 658.117188 999.4375 Z M 1249.640625 1069.78125 C 1227.101562 1069.171875 1204.988281 1080.675781 1192.921875 1101.585938 L 960.011719 1505 L 971.644531 1505 L 1201.648438 1106.617188 C 1211.859375 1088.929688 1230.410156 1079.347656 1249.359375 1079.859375 C 1257.96875 1080.09375 1266.660156 1082.410156 1274.699219 1087.054688 C 1300.429688 1101.90625 1309.121094 1134.363281 1294.261719 1160.09375 L 1095.128906 1505 L 1106.769531 1505 L 1302.988281 1165.125 C 1320.550781 1134.714844 1310.140625 1095.882812 1279.730469 1078.324219 C 1270.230469 1072.835938 1259.878906 1070.058594 1249.640625 1069.78125 Z M 1633.320312 1117.742188 C 1610.78125 1117.132812 1588.671875 1128.636719 1576.601562 1149.546875 L 1371.378906 1505 L 1383.019531 1505 L 1585.328125 1154.578125 C 1595.539062 1136.890625 1614.101562 1127.308594 1633.039062 1127.820312 C 1641.648438 1128.054688 1650.339844 1130.371094 1658.378906 1135.015625 C 1684.109375 1149.867188 1692.800781 1182.324219 1677.941406 1208.054688 L 1506.5 1505 L 1518.140625 1505 L 1686.671875 1213.085938 C 1704.230469 1182.675781 1693.828125 1143.84375 1663.410156 1126.285156 C 1653.910156 1120.796875 1643.558594 1118.019531 1633.320312 1117.742188 Z M 2244.011719 1120.9375 C 2221.480469 1120.328125 2199.371094 1131.835938 2187.300781 1152.742188 L 1983.921875 1505 L 1995.558594 1505 L 2196.03125 1157.777344 C 2206.238281 1140.089844 2224.789062 1130.507812 2243.738281 1131.015625 C 2252.351562 1131.25 2261.03125 1133.570312 2269.070312 1138.210938 C 2294.800781 1153.066406 2303.488281 1185.523438 2288.640625 1211.25 L 2119.039062 1505 L 2130.679688 1505 L 2297.371094 1216.285156 C 2314.929688 1185.871094 2304.519531 1147.039062 2274.109375 1129.480469 C 2264.601562 1123.992188 2254.261719 1121.214844 2244.011719 1120.9375 Z M 993.847656 1127.332031 C 971.3125 1126.722656 949.203125 1138.230469 937.132812 1159.136719 L 737.453125 1505 L 749.085938 1505 L 945.863281 1164.171875 C 956.074219 1146.484375 974.628906 1136.898438 993.570312 1137.410156 C 1002.179688 1137.644531 1010.871094 1139.964844 1018.910156 1144.605469 C 1044.640625 1159.460938 1053.328125 1191.914062 1038.46875 1217.644531 L 872.566406 1505 L 884.199219 1505 L 1047.199219 1222.679688 C 1064.761719 1192.265625 1054.351562 1153.433594 1023.941406 1135.875 C 1014.441406 1130.386719 1004.089844 1127.609375 993.847656 1127.332031 Z M 3007.320312 1210.347656 L 2837.210938 1505 L 2848.839844 1505 L 3007.320312 1230.503906 Z M 322.402344 1236.042969 C 299.867188 1235.433594 277.757812 1246.9375 265.6875 1267.847656 L 128.769531 1505 L 140.402344 1505 L 274.417969 1272.882812 C 284.628906 1255.191406 303.183594 1245.609375 322.128906 1246.121094 C 330.738281 1246.355469 339.421875 1248.675781 347.464844 1253.316406 C 373.191406 1268.171875 381.882812 1300.625 367.027344 1326.355469 L 263.886719 1505 L 275.523438 1505 L 375.757812 1331.390625 C 393.316406 1300.976562 382.910156 1262.144531 352.496094 1244.585938 C 342.992188 1239.097656 332.644531 1236.320312 322.402344 1236.042969 Z M 2808.261719 1289.285156 C 2785.730469 1288.675781 2763.621094 1300.183594 2751.550781 1321.089844 L 2645.371094 1505 L 2657 1505 L 2760.28125 1326.125 C 2770.488281 1308.4375 2789.039062 1298.855469 2807.988281 1299.367188 C 2816.601562 1299.597656 2825.28125 1301.917969 2833.320312 1306.558594 C 2859.050781 1321.414062 2867.738281 1353.871094 2852.878906 1379.597656 L 2780.480469 1505 L 2792.121094 1505 L 2861.609375 1384.632812 C 2879.171875 1354.21875 2868.761719 1315.386719 2838.351562 1297.828125 C 2828.851562 1292.34375 2818.5 1289.5625 2808.261719 1289.285156 Z M 1921.078125 1319.175781 C 1898.539062 1318.566406 1876.441406 1330.070312 1864.359375 1350.980469 L 1775.441406 1505 L 1787.078125 1505 L 1873.089844 1356.011719 C 1883.308594 1338.324219 1901.859375 1328.742188 1920.800781 1329.253906 C 1929.421875 1329.488281 1938.101562 1331.804688 1946.140625 1336.445312 C 1971.871094 1351.300781 1980.558594 1383.757812 1965.710938 1409.488281 L 1910.558594 1505 L 1922.199219 1505 L 1974.441406 1414.519531 C 1991.988281 1384.105469 1981.589844 1345.277344 1951.171875 1327.71875 C 1941.671875 1322.230469 1931.320312 1319.449219 1921.078125 1319.175781 Z M 2517.308594 1385.207031 C 2494.769531 1384.597656 2472.660156 1396.101562 2460.589844 1417.011719 L 2409.789062 1505 L 2421.421875 1505 L 2469.320312 1422.046875 C 2479.53125 1404.355469 2498.078125 1394.773438 2517.03125 1395.285156 C 2525.640625 1395.515625 2534.320312 1397.839844 2542.359375 1402.480469 C 2568.089844 1417.335938 2576.78125 1449.789062 2561.921875 1475.519531 L 2544.898438 1505 L 2556.539062 1505 L 2570.648438 1480.554688 C 2588.210938 1450.140625 2577.808594 1411.308594 2547.390625 1393.75 C 2537.890625 1388.261719 2527.539062 1385.484375 2517.300781 1385.207031 Z M 645.335938 1395.910156 C 622.800781 1395.300781 600.691406 1406.804688 588.621094 1427.714844 L 544 1505 L 555.632812 1505 L 597.351562 1432.75 C 607.5625 1415.058594 626.113281 1405.476562 645.058594 1405.988281 C 653.671875 1406.222656 662.355469 1408.542969 670.394531 1413.183594 C 696.125 1428.039062 704.816406 1460.492188 689.960938 1486.222656 L 679.121094 1505 L 690.753906 1505 L 698.691406 1491.257812 C 716.25 1460.84375 705.84375 1422.011719 675.429688 1404.453125 C 665.925781 1398.964844 655.578125 1396.1875 645.335938 1395.910156 Z M 3007.320312 1444.375 L 2972.320312 1505 L 2983.960938 1505 L 3007.320312 1464.535156 L 3007.320312 1444.375 "/>
</clipPath>
<linearGradient id="linear-pattern-1" gradientUnits="userSpaceOnUse" x1="-0.0276845" y1="0" x2="1.025254" y2="0" gradientTransform="matrix(3007.32, 530.272, 530.272, -3007.32, 0.003413, 486.83)">
<stop offset="0" stop-color="rgb(95.684814%, 86.665344%, 24.313354%)" stop-opacity="1"/>
<stop offset="0.03125" stop-color="rgb(95.695496%, 86.523438%, 24.34845%)" stop-opacity="1"/>
<stop offset="0.0351562" stop-color="rgb(95.724487%, 86.157227%, 24.441528%)" stop-opacity="1"/>
<stop offset="0.0390625" stop-color="rgb(95.742798%, 85.932922%, 24.497986%)" stop-opacity="1"/>
<stop offset="0.0429687" stop-color="rgb(95.761108%, 85.708618%, 24.554443%)" stop-opacity="1"/>
<stop offset="0.046875" stop-color="rgb(95.779419%, 85.484314%, 24.610901%)" stop-opacity="1"/>
<stop offset="0.0507812" stop-color="rgb(95.796204%, 85.26001%, 24.667358%)" stop-opacity="1"/>
<stop offset="0.0546875" stop-color="rgb(95.814514%, 85.035706%, 24.723816%)" stop-opacity="1"/>
<stop offset="0.0585937" stop-color="rgb(95.831299%, 84.811401%, 24.780273%)" stop-opacity="1"/>
<stop offset="0.0625" stop-color="rgb(95.849609%, 84.587097%, 24.836731%)" stop-opacity="1"/>
<stop offset="0.0664062" stop-color="rgb(95.86792%, 84.362793%, 24.893188%)" stop-opacity="1"/>
<stop offset="0.0703125" stop-color="rgb(95.88623%, 84.140015%, 24.949646%)" stop-opacity="1"/>
<stop offset="0.0742188" stop-color="rgb(95.903015%, 83.91571%, 25.006104%)" stop-opacity="1"/>
<stop offset="0.078125" stop-color="rgb(95.921326%, 83.691406%, 25.062561%)" stop-opacity="1"/>
<stop offset="0.0820312" stop-color="rgb(95.93811%, 83.467102%, 25.119019%)" stop-opacity="1"/>
<stop offset="0.0859375" stop-color="rgb(95.956421%, 83.242798%, 25.175476%)" stop-opacity="1"/>
<stop offset="0.0898438" stop-color="rgb(95.973206%, 83.018494%, 25.231934%)" stop-opacity="1"/>
<stop offset="0.09375" stop-color="rgb(95.991516%, 82.794189%, 25.288391%)" stop-opacity="1"/>
<stop offset="0.0976562" stop-color="rgb(96.009827%, 82.569885%, 25.344849%)" stop-opacity="1"/>
<stop offset="0.101562" stop-color="rgb(96.028137%, 82.345581%, 25.401306%)" stop-opacity="1"/>
<stop offset="0.105469" stop-color="rgb(96.044922%, 82.121277%, 25.457764%)" stop-opacity="1"/>
<stop offset="0.109375" stop-color="rgb(96.063232%, 81.896973%, 25.514221%)" stop-opacity="1"/>
<stop offset="0.113281" stop-color="rgb(96.080017%, 81.672668%, 25.570679%)" stop-opacity="1"/>
<stop offset="0.117187" stop-color="rgb(96.098328%, 81.448364%, 25.627136%)" stop-opacity="1"/>
<stop offset="0.121094" stop-color="rgb(96.115112%, 81.22406%, 25.683594%)" stop-opacity="1"/>
<stop offset="0.125" stop-color="rgb(96.133423%, 81.001282%, 25.740051%)" stop-opacity="1"/>
<stop offset="0.128906" stop-color="rgb(96.151733%, 80.776978%, 25.796509%)" stop-opacity="1"/>
<stop offset="0.132812" stop-color="rgb(96.170044%, 80.552673%, 25.852966%)" stop-opacity="1"/>
<stop offset="0.136719" stop-color="rgb(96.186829%, 80.328369%, 25.909424%)" stop-opacity="1"/>
<stop offset="0.140625" stop-color="rgb(96.205139%, 80.104065%, 25.965881%)" stop-opacity="1"/>
<stop offset="0.144531" stop-color="rgb(96.221924%, 79.879761%, 26.022339%)" stop-opacity="1"/>
<stop offset="0.148438" stop-color="rgb(96.240234%, 79.655457%, 26.078796%)" stop-opacity="1"/>
<stop offset="0.152344" stop-color="rgb(96.257019%, 79.431152%, 26.135254%)" stop-opacity="1"/>
<stop offset="0.15625" stop-color="rgb(96.27533%, 79.206848%, 26.191711%)" stop-opacity="1"/>
<stop offset="0.160156" stop-color="rgb(96.29364%, 78.982544%, 26.248169%)" stop-opacity="1"/>
<stop offset="0.164062" stop-color="rgb(96.311951%, 78.75824%, 26.304626%)" stop-opacity="1"/>
<stop offset="0.167969" stop-color="rgb(96.328735%, 78.533936%, 26.361084%)" stop-opacity="1"/>
<stop offset="0.171875" stop-color="rgb(96.347046%, 78.309631%, 26.417542%)" stop-opacity="1"/>
<stop offset="0.175781" stop-color="rgb(96.363831%, 78.085327%, 26.473999%)" stop-opacity="1"/>
<stop offset="0.179688" stop-color="rgb(96.382141%, 77.861023%, 26.530457%)" stop-opacity="1"/>
<stop offset="0.183594" stop-color="rgb(96.398926%, 77.636719%, 26.586914%)" stop-opacity="1"/>
<stop offset="0.1875" stop-color="rgb(96.417236%, 77.41394%, 26.643372%)" stop-opacity="1"/>
<stop offset="0.191406" stop-color="rgb(96.435547%, 77.189636%, 26.699829%)" stop-opacity="1"/>
<stop offset="0.195312" stop-color="rgb(96.453857%, 76.965332%, 26.756287%)" stop-opacity="1"/>
<stop offset="0.199219" stop-color="rgb(96.470642%, 76.741028%, 26.812744%)" stop-opacity="1"/>
<stop offset="0.203125" stop-color="rgb(96.488953%, 76.516724%, 26.869202%)" stop-opacity="1"/>
<stop offset="0.207031" stop-color="rgb(96.505737%, 76.292419%, 26.925659%)" stop-opacity="1"/>
<stop offset="0.210938" stop-color="rgb(96.524048%, 76.068115%, 26.982117%)" stop-opacity="1"/>
<stop offset="0.214844" stop-color="rgb(96.540833%, 75.843811%, 27.038574%)" stop-opacity="1"/>
<stop offset="0.21875" stop-color="rgb(96.559143%, 75.619507%, 27.095032%)" stop-opacity="1"/>
<stop offset="0.222656" stop-color="rgb(96.577454%, 75.395203%, 27.151489%)" stop-opacity="1"/>
<stop offset="0.226562" stop-color="rgb(96.595764%, 75.170898%, 27.207947%)" stop-opacity="1"/>
<stop offset="0.230469" stop-color="rgb(96.612549%, 74.946594%, 27.264404%)" stop-opacity="1"/>
<stop offset="0.234375" stop-color="rgb(96.630859%, 74.72229%, 27.320862%)" stop-opacity="1"/>
<stop offset="0.238281" stop-color="rgb(96.647644%, 74.497986%, 27.377319%)" stop-opacity="1"/>
<stop offset="0.242187" stop-color="rgb(96.665955%, 74.275208%, 27.433777%)" stop-opacity="1"/>
<stop offset="0.246094" stop-color="rgb(96.682739%, 74.050903%, 27.490234%)" stop-opacity="1"/>
<stop offset="0.25" stop-color="rgb(96.70105%, 73.826599%, 27.546692%)" stop-opacity="1"/>
<stop offset="0.253906" stop-color="rgb(96.71936%, 73.602295%, 27.603149%)" stop-opacity="1"/>
<stop offset="0.257812" stop-color="rgb(96.737671%, 73.377991%, 27.659607%)" stop-opacity="1"/>
<stop offset="0.261719" stop-color="rgb(96.754456%, 73.153687%, 27.716064%)" stop-opacity="1"/>
<stop offset="0.265625" stop-color="rgb(96.772766%, 72.929382%, 27.772522%)" stop-opacity="1"/>
<stop offset="0.269531" stop-color="rgb(96.789551%, 72.705078%, 27.828979%)" stop-opacity="1"/>
<stop offset="0.273437" stop-color="rgb(96.807861%, 72.480774%, 27.885437%)" stop-opacity="1"/>
<stop offset="0.277344" stop-color="rgb(96.824646%, 72.25647%, 27.941895%)" stop-opacity="1"/>
<stop offset="0.28125" stop-color="rgb(96.842957%, 72.032166%, 27.998352%)" stop-opacity="1"/>
<stop offset="0.285156" stop-color="rgb(96.861267%, 71.807861%, 28.05481%)" stop-opacity="1"/>
<stop offset="0.289062" stop-color="rgb(96.879578%, 71.583557%, 28.111267%)" stop-opacity="1"/>
<stop offset="0.292969" stop-color="rgb(96.896362%, 71.359253%, 28.167725%)" stop-opacity="1"/>
<stop offset="0.296875" stop-color="rgb(96.914673%, 71.136475%, 28.224182%)" stop-opacity="1"/>
<stop offset="0.300781" stop-color="rgb(96.931458%, 70.91217%, 28.279114%)" stop-opacity="1"/>
<stop offset="0.304687" stop-color="rgb(96.949768%, 70.687866%, 28.335571%)" stop-opacity="1"/>
<stop offset="0.308594" stop-color="rgb(96.966553%, 70.463562%, 28.392029%)" stop-opacity="1"/>
<stop offset="0.3125" stop-color="rgb(96.984863%, 70.239258%, 28.448486%)" stop-opacity="1"/>
<stop offset="0.316406" stop-color="rgb(97.003174%, 70.014954%, 28.504944%)" stop-opacity="1"/>
<stop offset="0.320312" stop-color="rgb(97.021484%, 69.790649%, 28.561401%)" stop-opacity="1"/>
<stop offset="0.324219" stop-color="rgb(97.038269%, 69.566345%, 28.617859%)" stop-opacity="1"/>
<stop offset="0.328125" stop-color="rgb(97.05658%, 69.342041%, 28.674316%)" stop-opacity="1"/>
<stop offset="0.332031" stop-color="rgb(97.073364%, 69.117737%, 28.730774%)" stop-opacity="1"/>
<stop offset="0.335938" stop-color="rgb(97.091675%, 68.893433%, 28.787231%)" stop-opacity="1"/>
<stop offset="0.339844" stop-color="rgb(97.108459%, 68.669128%, 28.843689%)" stop-opacity="1"/>
<stop offset="0.34375" stop-color="rgb(97.12677%, 68.444824%, 28.900146%)" stop-opacity="1"/>
<stop offset="0.347656" stop-color="rgb(97.145081%, 68.22052%, 28.956604%)" stop-opacity="1"/>
<stop offset="0.351562" stop-color="rgb(97.163391%, 67.996216%, 29.013062%)" stop-opacity="1"/>
<stop offset="0.355469" stop-color="rgb(97.180176%, 67.771912%, 29.069519%)" stop-opacity="1"/>
<stop offset="0.359375" stop-color="rgb(97.198486%, 67.549133%, 29.125977%)" stop-opacity="1"/>
<stop offset="0.363281" stop-color="rgb(97.215271%, 67.324829%, 29.182434%)" stop-opacity="1"/>
<stop offset="0.367188" stop-color="rgb(97.233582%, 67.100525%, 29.238892%)" stop-opacity="1"/>
<stop offset="0.371094" stop-color="rgb(97.250366%, 66.876221%, 29.295349%)" stop-opacity="1"/>
<stop offset="0.375" stop-color="rgb(97.268677%, 66.651917%, 29.351807%)" stop-opacity="1"/>
<stop offset="0.378906" stop-color="rgb(97.286987%, 66.427612%, 29.408264%)" stop-opacity="1"/>
<stop offset="0.382812" stop-color="rgb(97.305298%, 66.203308%, 29.464722%)" stop-opacity="1"/>
<stop offset="0.386719" stop-color="rgb(97.322083%, 65.979004%, 29.521179%)" stop-opacity="1"/>
<stop offset="0.390625" stop-color="rgb(97.340393%, 65.7547%, 29.577637%)" stop-opacity="1"/>
<stop offset="0.394531" stop-color="rgb(97.357178%, 65.530396%, 29.634094%)" stop-opacity="1"/>
<stop offset="0.398438" stop-color="rgb(97.375488%, 65.306091%, 29.690552%)" stop-opacity="1"/>
<stop offset="0.402344" stop-color="rgb(97.392273%, 65.081787%, 29.747009%)" stop-opacity="1"/>
<stop offset="0.40625" stop-color="rgb(97.410583%, 64.857483%, 29.803467%)" stop-opacity="1"/>
<stop offset="0.410156" stop-color="rgb(97.428894%, 64.633179%, 29.859924%)" stop-opacity="1"/>
<stop offset="0.414062" stop-color="rgb(97.447205%, 64.4104%, 29.916382%)" stop-opacity="1"/>
<stop offset="0.417969" stop-color="rgb(97.463989%, 64.186096%, 29.972839%)" stop-opacity="1"/>
<stop offset="0.421875" stop-color="rgb(97.4823%, 63.961792%, 30.029297%)" stop-opacity="1"/>
<stop offset="0.425781" stop-color="rgb(97.499084%, 63.737488%, 30.085754%)" stop-opacity="1"/>
<stop offset="0.429688" stop-color="rgb(97.517395%, 63.513184%, 30.142212%)" stop-opacity="1"/>
<stop offset="0.433594" stop-color="rgb(97.535706%, 63.288879%, 30.198669%)" stop-opacity="1"/>
<stop offset="0.4375" stop-color="rgb(97.554016%, 63.064575%, 30.255127%)" stop-opacity="1"/>
<stop offset="0.441406" stop-color="rgb(97.570801%, 62.840271%, 30.311584%)" stop-opacity="1"/>
<stop offset="0.445312" stop-color="rgb(97.589111%, 62.615967%, 30.368042%)" stop-opacity="1"/>
<stop offset="0.449219" stop-color="rgb(97.605896%, 62.391663%, 30.4245%)" stop-opacity="1"/>
<stop offset="0.453125" stop-color="rgb(97.624207%, 62.167358%, 30.480957%)" stop-opacity="1"/>
<stop offset="0.457031" stop-color="rgb(97.640991%, 61.943054%, 30.537415%)" stop-opacity="1"/>
<stop offset="0.460937" stop-color="rgb(97.659302%, 61.71875%, 30.593872%)" stop-opacity="1"/>
<stop offset="0.464844" stop-color="rgb(97.677612%, 61.494446%, 30.65033%)" stop-opacity="1"/>
<stop offset="0.46875" stop-color="rgb(97.695923%, 61.270142%, 30.706787%)" stop-opacity="1"/>
<stop offset="0.472656" stop-color="rgb(97.712708%, 61.045837%, 30.763245%)" stop-opacity="1"/>
<stop offset="0.476562" stop-color="rgb(97.731018%, 60.823059%, 30.819702%)" stop-opacity="1"/>
<stop offset="0.480469" stop-color="rgb(97.747803%, 60.598755%, 30.87616%)" stop-opacity="1"/>
<stop offset="0.484375" stop-color="rgb(97.766113%, 60.374451%, 30.932617%)" stop-opacity="1"/>
<stop offset="0.488281" stop-color="rgb(97.782898%, 60.150146%, 30.989075%)" stop-opacity="1"/>
<stop offset="0.492187" stop-color="rgb(97.801208%, 59.925842%, 31.045532%)" stop-opacity="1"/>
<stop offset="0.496094" stop-color="rgb(97.819519%, 59.701538%, 31.10199%)" stop-opacity="1"/>
<stop offset="0.5" stop-color="rgb(97.83783%, 59.477234%, 31.158447%)" stop-opacity="1"/>
<stop offset="0.503906" stop-color="rgb(97.854614%, 59.25293%, 31.214905%)" stop-opacity="1"/>
<stop offset="0.507812" stop-color="rgb(97.872925%, 59.028625%, 31.271362%)" stop-opacity="1"/>
<stop offset="0.511719" stop-color="rgb(97.889709%, 58.804321%, 31.32782%)" stop-opacity="1"/>
<stop offset="0.515625" stop-color="rgb(97.90802%, 58.580017%, 31.384277%)" stop-opacity="1"/>
<stop offset="0.519531" stop-color="rgb(97.924805%, 58.355713%, 31.440735%)" stop-opacity="1"/>
<stop offset="0.523438" stop-color="rgb(97.943115%, 58.131409%, 31.497192%)" stop-opacity="1"/>
<stop offset="0.527344" stop-color="rgb(97.961426%, 57.907104%, 31.55365%)" stop-opacity="1"/>
<stop offset="0.53125" stop-color="rgb(97.979736%, 57.684326%, 31.610107%)" stop-opacity="1"/>
<stop offset="0.535156" stop-color="rgb(97.996521%, 57.460022%, 31.666565%)" stop-opacity="1"/>
<stop offset="0.539062" stop-color="rgb(98.014832%, 57.235718%, 31.723022%)" stop-opacity="1"/>
<stop offset="0.542969" stop-color="rgb(98.031616%, 57.011414%, 31.77948%)" stop-opacity="1"/>
<stop offset="0.546875" stop-color="rgb(98.049927%, 56.787109%, 31.835938%)" stop-opacity="1"/>
<stop offset="0.550781" stop-color="rgb(98.066711%, 56.562805%, 31.892395%)" stop-opacity="1"/>
<stop offset="0.554688" stop-color="rgb(98.085022%, 56.338501%, 31.948853%)" stop-opacity="1"/>
<stop offset="0.558594" stop-color="rgb(98.103333%, 56.114197%, 32.00531%)" stop-opacity="1"/>
<stop offset="0.5625" stop-color="rgb(98.121643%, 55.889893%, 32.061768%)" stop-opacity="1"/>
<stop offset="0.566406" stop-color="rgb(98.138428%, 55.665588%, 32.118225%)" stop-opacity="1"/>
<stop offset="0.570312" stop-color="rgb(98.156738%, 55.441284%, 32.174683%)" stop-opacity="1"/>
<stop offset="0.574219" stop-color="rgb(98.173523%, 55.21698%, 32.23114%)" stop-opacity="1"/>
<stop offset="0.578125" stop-color="rgb(98.191833%, 54.992676%, 32.287598%)" stop-opacity="1"/>
<stop offset="0.582031" stop-color="rgb(98.208618%, 54.768372%, 32.344055%)" stop-opacity="1"/>
<stop offset="0.585937" stop-color="rgb(98.226929%, 54.545593%, 32.400513%)" stop-opacity="1"/>
<stop offset="0.589844" stop-color="rgb(98.245239%, 54.321289%, 32.45697%)" stop-opacity="1"/>
<stop offset="0.59375" stop-color="rgb(98.26355%, 54.096985%, 32.513428%)" stop-opacity="1"/>
<stop offset="0.597656" stop-color="rgb(98.280334%, 53.872681%, 32.569885%)" stop-opacity="1"/>
<stop offset="0.601562" stop-color="rgb(98.298645%, 53.648376%, 32.626343%)" stop-opacity="1"/>
<stop offset="0.605469" stop-color="rgb(98.31543%, 53.424072%, 32.6828%)" stop-opacity="1"/>
<stop offset="0.609375" stop-color="rgb(98.33374%, 53.199768%, 32.739258%)" stop-opacity="1"/>
<stop offset="0.613281" stop-color="rgb(98.350525%, 52.975464%, 32.795715%)" stop-opacity="1"/>
<stop offset="0.617187" stop-color="rgb(98.368835%, 52.75116%, 32.852173%)" stop-opacity="1"/>
<stop offset="0.621094" stop-color="rgb(98.387146%, 52.526855%, 32.90863%)" stop-opacity="1"/>
<stop offset="0.625" stop-color="rgb(98.405457%, 52.302551%, 32.965088%)" stop-opacity="1"/>
<stop offset="0.628906" stop-color="rgb(98.422241%, 52.078247%, 33.021545%)" stop-opacity="1"/>
<stop offset="0.632812" stop-color="rgb(98.440552%, 51.853943%, 33.078003%)" stop-opacity="1"/>
<stop offset="0.636719" stop-color="rgb(98.457336%, 51.629639%, 33.13446%)" stop-opacity="1"/>
<stop offset="0.640625" stop-color="rgb(98.475647%, 51.405334%, 33.190918%)" stop-opacity="1"/>
<stop offset="0.644531" stop-color="rgb(98.492432%, 51.18103%, 33.247375%)" stop-opacity="1"/>
<stop offset="0.648437" stop-color="rgb(98.510742%, 50.958252%, 33.303833%)" stop-opacity="1"/>
<stop offset="0.652344" stop-color="rgb(98.529053%, 50.733948%, 33.360291%)" stop-opacity="1"/>
<stop offset="0.65625" stop-color="rgb(98.547363%, 50.509644%, 33.416748%)" stop-opacity="1"/>
<stop offset="0.660156" stop-color="rgb(98.564148%, 50.285339%, 33.473206%)" stop-opacity="1"/>
<stop offset="0.664062" stop-color="rgb(98.582458%, 50.061035%, 33.529663%)" stop-opacity="1"/>
<stop offset="0.667969" stop-color="rgb(98.599243%, 49.836731%, 33.586121%)" stop-opacity="1"/>
<stop offset="0.671875" stop-color="rgb(98.617554%, 49.612427%, 33.642578%)" stop-opacity="1"/>
<stop offset="0.675781" stop-color="rgb(98.634338%, 49.388123%, 33.699036%)" stop-opacity="1"/>
<stop offset="0.679688" stop-color="rgb(98.652649%, 49.163818%, 33.755493%)" stop-opacity="1"/>
<stop offset="0.683594" stop-color="rgb(98.670959%, 48.939514%, 33.811951%)" stop-opacity="1"/>
<stop offset="0.6875" stop-color="rgb(98.68927%, 48.71521%, 33.868408%)" stop-opacity="1"/>
<stop offset="0.691406" stop-color="rgb(98.706055%, 48.490906%, 33.924866%)" stop-opacity="1"/>
<stop offset="0.695312" stop-color="rgb(98.724365%, 48.266602%, 33.981323%)" stop-opacity="1"/>
<stop offset="0.699219" stop-color="rgb(98.74115%, 48.042297%, 34.037781%)" stop-opacity="1"/>
<stop offset="0.703125" stop-color="rgb(98.75946%, 47.819519%, 34.094238%)" stop-opacity="1"/>
<stop offset="0.707031" stop-color="rgb(98.776245%, 47.595215%, 34.150696%)" stop-opacity="1"/>
<stop offset="0.710938" stop-color="rgb(98.794556%, 47.370911%, 34.207153%)" stop-opacity="1"/>
<stop offset="0.714844" stop-color="rgb(98.812866%, 47.146606%, 34.263611%)" stop-opacity="1"/>
<stop offset="0.71875" stop-color="rgb(98.831177%, 46.922302%, 34.320068%)" stop-opacity="1"/>
<stop offset="0.722656" stop-color="rgb(98.847961%, 46.697998%, 34.376526%)" stop-opacity="1"/>
<stop offset="0.726562" stop-color="rgb(98.866272%, 46.473694%, 34.432983%)" stop-opacity="1"/>
<stop offset="0.730469" stop-color="rgb(98.883057%, 46.24939%, 34.489441%)" stop-opacity="1"/>
<stop offset="0.734375" stop-color="rgb(98.901367%, 46.025085%, 34.545898%)" stop-opacity="1"/>
<stop offset="0.738281" stop-color="rgb(98.918152%, 45.800781%, 34.602356%)" stop-opacity="1"/>
<stop offset="0.742187" stop-color="rgb(98.936462%, 45.576477%, 34.658813%)" stop-opacity="1"/>
<stop offset="0.746094" stop-color="rgb(98.954773%, 45.352173%, 34.715271%)" stop-opacity="1"/>
<stop offset="0.75" stop-color="rgb(98.973083%, 45.127869%, 34.771729%)" stop-opacity="1"/>
<stop offset="0.753906" stop-color="rgb(98.989868%, 44.903564%, 34.828186%)" stop-opacity="1"/>
<stop offset="0.757812" stop-color="rgb(99.008179%, 44.67926%, 34.884644%)" stop-opacity="1"/>
<stop offset="0.761719" stop-color="rgb(99.024963%, 44.454956%, 34.941101%)" stop-opacity="1"/>
<stop offset="0.765625" stop-color="rgb(99.043274%, 44.232178%, 34.997559%)" stop-opacity="1"/>
<stop offset="0.769531" stop-color="rgb(99.060059%, 44.007874%, 35.054016%)" stop-opacity="1"/>
<stop offset="0.773438" stop-color="rgb(99.078369%, 43.783569%, 35.110474%)" stop-opacity="1"/>
<stop offset="0.777344" stop-color="rgb(99.09668%, 43.559265%, 35.166931%)" stop-opacity="1"/>
<stop offset="0.78125" stop-color="rgb(99.11499%, 43.334961%, 35.223389%)" stop-opacity="1"/>
<stop offset="0.785156" stop-color="rgb(99.131775%, 43.110657%, 35.279846%)" stop-opacity="1"/>
<stop offset="0.789062" stop-color="rgb(99.150085%, 42.886353%, 35.336304%)" stop-opacity="1"/>
<stop offset="0.792969" stop-color="rgb(99.16687%, 42.662048%, 35.392761%)" stop-opacity="1"/>
<stop offset="0.796875" stop-color="rgb(99.185181%, 42.437744%, 35.449219%)" stop-opacity="1"/>
<stop offset="0.800781" stop-color="rgb(99.203491%, 42.21344%, 35.505676%)" stop-opacity="1"/>
<stop offset="0.804688" stop-color="rgb(99.221802%, 41.989136%, 35.562134%)" stop-opacity="1"/>
<stop offset="0.808594" stop-color="rgb(99.238586%, 41.764832%, 35.618591%)" stop-opacity="1"/>
<stop offset="0.8125" stop-color="rgb(99.256897%, 41.540527%, 35.675049%)" stop-opacity="1"/>
<stop offset="0.816406" stop-color="rgb(99.273682%, 41.316223%, 35.731506%)" stop-opacity="1"/>
<stop offset="0.820312" stop-color="rgb(99.291992%, 41.093445%, 35.787964%)" stop-opacity="1"/>
<stop offset="0.824219" stop-color="rgb(99.308777%, 40.869141%, 35.844421%)" stop-opacity="1"/>
<stop offset="0.828125" stop-color="rgb(99.327087%, 40.644836%, 35.900879%)" stop-opacity="1"/>
<stop offset="0.832031" stop-color="rgb(99.345398%, 40.420532%, 35.957336%)" stop-opacity="1"/>
<stop offset="0.835938" stop-color="rgb(99.363708%, 40.196228%, 36.013794%)" stop-opacity="1"/>
<stop offset="0.839844" stop-color="rgb(99.380493%, 39.971924%, 36.070251%)" stop-opacity="1"/>
<stop offset="0.84375" stop-color="rgb(99.398804%, 39.74762%, 36.126709%)" stop-opacity="1"/>
<stop offset="0.847656" stop-color="rgb(99.415588%, 39.523315%, 36.183167%)" stop-opacity="1"/>
<stop offset="0.851562" stop-color="rgb(99.433899%, 39.299011%, 36.239624%)" stop-opacity="1"/>
<stop offset="0.855469" stop-color="rgb(99.450684%, 39.074707%, 36.296082%)" stop-opacity="1"/>
<stop offset="0.859375" stop-color="rgb(99.468994%, 38.850403%, 36.352539%)" stop-opacity="1"/>
<stop offset="0.863281" stop-color="rgb(99.487305%, 38.626099%, 36.408997%)" stop-opacity="1"/>
<stop offset="0.867187" stop-color="rgb(99.505615%, 38.401794%, 36.465454%)" stop-opacity="1"/>
<stop offset="0.871094" stop-color="rgb(99.5224%, 38.17749%, 36.521912%)" stop-opacity="1"/>
<stop offset="0.875" stop-color="rgb(99.54071%, 37.954712%, 36.578369%)" stop-opacity="1"/>
<stop offset="0.878906" stop-color="rgb(99.557495%, 37.730408%, 36.634827%)" stop-opacity="1"/>
<stop offset="0.882812" stop-color="rgb(99.575806%, 37.506104%, 36.691284%)" stop-opacity="1"/>
<stop offset="0.886719" stop-color="rgb(99.59259%, 37.281799%, 36.747742%)" stop-opacity="1"/>
<stop offset="0.890625" stop-color="rgb(99.610901%, 37.057495%, 36.804199%)" stop-opacity="1"/>
<stop offset="0.894531" stop-color="rgb(99.629211%, 36.833191%, 36.860657%)" stop-opacity="1"/>
<stop offset="0.898437" stop-color="rgb(99.647522%, 36.608887%, 36.917114%)" stop-opacity="1"/>
<stop offset="0.902344" stop-color="rgb(99.664307%, 36.384583%, 36.973572%)" stop-opacity="1"/>
<stop offset="0.90625" stop-color="rgb(99.682617%, 36.160278%, 37.030029%)" stop-opacity="1"/>
<stop offset="0.910156" stop-color="rgb(99.699402%, 35.935974%, 37.086487%)" stop-opacity="1"/>
<stop offset="0.914062" stop-color="rgb(99.717712%, 35.71167%, 37.142944%)" stop-opacity="1"/>
<stop offset="0.917969" stop-color="rgb(99.734497%, 35.487366%, 37.199402%)" stop-opacity="1"/>
<stop offset="0.921875" stop-color="rgb(99.752808%, 35.263062%, 37.255859%)" stop-opacity="1"/>
<stop offset="0.925781" stop-color="rgb(99.771118%, 35.038757%, 37.312317%)" stop-opacity="1"/>
<stop offset="0.929687" stop-color="rgb(99.789429%, 34.814453%, 37.368774%)" stop-opacity="1"/>
<stop offset="0.933594" stop-color="rgb(99.806213%, 34.590149%, 37.425232%)" stop-opacity="1"/>
<stop offset="0.9375" stop-color="rgb(99.824524%, 34.367371%, 37.481689%)" stop-opacity="1"/>
<stop offset="0.941406" stop-color="rgb(99.841309%, 34.143066%, 37.538147%)" stop-opacity="1"/>
<stop offset="0.945312" stop-color="rgb(99.859619%, 33.918762%, 37.594604%)" stop-opacity="1"/>
<stop offset="0.949219" stop-color="rgb(99.876404%, 33.694458%, 37.651062%)" stop-opacity="1"/>
<stop offset="0.953125" stop-color="rgb(99.894714%, 33.470154%, 37.70752%)" stop-opacity="1"/>
<stop offset="0.957031" stop-color="rgb(99.913025%, 33.24585%, 37.763977%)" stop-opacity="1"/>
<stop offset="0.960937" stop-color="rgb(99.931335%, 33.021545%, 37.820435%)" stop-opacity="1"/>
<stop offset="0.964844" stop-color="rgb(99.94812%, 32.797241%, 37.876892%)" stop-opacity="1"/>
<stop offset="0.96875" stop-color="rgb(99.966431%, 32.572937%, 37.93335%)" stop-opacity="1"/>
<stop offset="0.972656" stop-color="rgb(99.983215%, 32.363892%, 37.985229%)" stop-opacity="1"/>
<stop offset="0.976562" stop-color="rgb(100%, 32.156372%, 38.038635%)" stop-opacity="1"/>
<stop offset="0.984375" stop-color="rgb(100%, 32.156372%, 38.038635%)" stop-opacity="1"/>
<stop offset="1" stop-color="rgb(100%, 32.156372%, 38.038635%)" stop-opacity="1"/>
</linearGradient>
</defs>
<g clip-path="url(#clip-0)">
<path fill-rule="nonzero" fill="url(#linear-pattern-0)" d="M 3651.285156 377.128906 L 2246.304688 2802.03125 L -650.890625 1123.402344 L 754.089844 -1301.5 Z M 3651.285156 377.128906 "/>
</g>
<g clip-path="url(#clip-1)">
<path fill-rule="nonzero" fill="url(#linear-pattern-1)" d="M -256.605469 1455.285156 L 90.472656 -513.097656 L 3256.996094 45.246094 L 2909.917969 2013.628906 Z M -256.605469 1455.285156 "/>
</g>
</svg>
